 <svg  version="1.0" xmlns="http://www.w3.org/2000/svg"  width="50.000000pt" height="45.000000pt" viewBox="0 0 400.000000 250.000000"  preserveAspectRatio="xMidYMid meet">  <g transform="translate(0.000000,250.000000) scale(0.100000,-0.100000)" fill="#00753c" stroke="none"> <path d="M203 2010 c-23 -10 -55 -18 -70 -17 -21 2 -29 -3 -31 -18 -2 -12 -18 -29 -36 -39 -47 -25 -66 -63 -65 -133 l1 -58 9 43 c17 89 36 111 139 164 88 46 99 49 149 44 68 -6 234 -84 252 -118 7 -13 14 -57 17 -98 l4 -76 -81 -28 c-45 -16 -83 -31 -85 -35 -2 -3 63 -5 146 -3 124 2 148 5 139 16 -9 11 -1 23 36 56 26 24 66 51 88 60 43 20 199 36 234 25 25 -8 101 -110 101 -137 0 -17 11 -18 130 -18 l130 0 0 -159 c0 -178 4 -191 65 -191 58 0 65 22 65 197 l0 153 175 0 175 0 0 -167 c0 -194 -9 -225 -80 -286 -56 -47 -127 -73 -237 -87 -183 -24 -370 17 -455 97 l-27 26 -3 -59 -3 -59 -200 -5 c-138 -3 -192 -8 -175 -14 14 -5 41 -9 60 -9 19 1 26 -1 15 -4 -59 -13 -88 -27 -115 -55 -29 -28 -30 -34 -30 -113 0 -75 3 -87 25 -114 46 -54 102 -65 309 -58 100 4 402 8 671 9 485 3 487 3 165 8 l-325 5 35 22 c42 27 44 27 60 8 16 -19 99 -20 126 -1 17 12 22 12 39 0 25 -19 95 -18 123 2 20 14 22 23 22 118 0 66 -4 106 -12 114 -16 16 -120 16 -136 0 -10 -10 -17 -10 -32 0 -23 14 -126 16 -134 3 -4 -5 -25 1 -49 12 l-42 22 100 5 c55 3 -98 7 -340 10 -294 4 -72 6 665 8 1071 2 1106 3 1117 21 11 17 6 21 -46 40 -68 25 -128 66 -167 114 l-27 35 -21 -32 c-30 -44 -106 -92 -184 -116 -89 -28 -225 -39 -469 -40 l-203 0 0 270 0 270 103 0 102 0 23 42 c20 37 21 43 7 58 -8 9 -15 28 -15 42 0 72 141 98 206 37 29 -27 30 -46 5 -73 -19 -21 -19 -21 5 -62 24 -41 25 -41 97 -47 138 -11 274 -71 323 -144 l21 -32 22 29 c18 25 21 43 21 120 0 68 -3 90 -13 90 -20 0 -57 43 -57 66 0 79 156 108 222 42 15 -15 19 -29 15 -52 -4 -28 1 -35 43 -68 l48 -37 128 1 c71 1 153 -1 181 -4 37 -4 58 -1 70 9 16 13 15 13 -7 3 -24 -11 -24 -10 -5 5 11 8 25 13 33 10 7 -2 10 -1 7 4 -3 6 8 18 24 27 17 10 27 22 25 26 -12 20 8 59 39 74 38 20 112 23 145 5 12 -6 29 -23 38 -37 22 -33 6 -70 -40 -89 -32 -14 -34 -17 -46 -94 -12 -76 -11 -80 11 -110 27 -37 37 -122 20 -174 -7 -20 -30 -54 -51 -76 -41 -42 -120 -89 -120 -71 0 5 17 18 38 29 48 25 91 67 108 108 18 42 18 115 0 156 -32 73 -150 154 -251 172 -56 10 -328 14 -340 5 -5 -4 -29 -10 -53 -14 -24 -3 -76 -23 -115 -43 -40 -20 -76 -36 -80 -35 -5 1 -6 -2 -2 -8 3 -5 -5 -25 -19 -43 -15 -19 -26 -39 -26 -45 0 -23 -16 -11 -42 32 -45 74 -152 125 -308 147 -41 6 -82 13 -90 16 -8 4 -18 6 -22 5 -4 -1 -89 -4 -189 -8 -101 -3 -191 -10 -201 -15 -16 -8 -18 -33 -20 -254 l-3 -245 44 -6 c72 -11 448 4 531 21 41 8 109 32 150 52 61 31 81 47 105 85 30 48 45 59 45 35 0 -34 74 -98 164 -142 l93 -46 60 25 c116 48 185 53 343 21 18 -4 15 -1 -10 11 -79 36 -267 25 -337 -21 -19 -13 -28 -12 -75 1 -186 55 -272 204 -183 320 39 51 87 83 167 112 66 24 86 27 218 27 122 0 156 -4 215 -22 139 -44 215 -121 215 -218 0 -82 -49 -144 -155 -198 -27 -14 -28 -16 -10 -22 55 -17 101 -59 117 -105 2 -6 30 -15 63 -21 114 -20 185 -80 185 -155 0 -91 -104 -158 -246 -159 -78 0 -81 -1 -100 -30 -51 -78 -212 -109 -324 -63 -39 17 -62 34 -79 61 l-24 37 -1111 0 c-724 0 -1127 -4 -1156 -11 -132 -30 -359 -27 -447 7 -35 13 -43 20 -43 41 0 14 -7 52 -15 84 -15 56 -15 62 3 102 21 45 89 115 137 140 l30 16 -52 1 -53 0 0 270 0 270 -27 -6 c-16 -3 -35 -8 -45 -10 -18 -5 -224 46 -281 70 -35 15 -37 15 -37 -1 0 -18 67 -53 101 -53 8 0 53 -11 100 -25 58 -18 95 -24 122 -19 l37 6 0 -248 c0 -215 2 -250 16 -265 16 -17 14 -21 -21 -60 -20 -23 -46 -61 -56 -85 -19 -41 -19 -47 -4 -103 8 -32 15 -70 15 -83 0 -52 68 -84 204 -96 103 -10 244 -1 316 20 50 14 224 15 1490 10 l765 -3 20 -32 c11 -18 42 -43 70 -57 43 -22 63 -25 150 -25 111 0 160 17 207 73 22 27 31 30 104 34 97 6 171 36 219 89 32 36 35 44 35 100 0 46 -5 68 -21 90 -28 40 -114 87 -172 95 -42 6 -52 12 -76 48 l-29 41 39 24 c21 14 55 48 75 78 36 53 36 54 32 138 -3 63 -9 89 -23 105 -16 18 -17 27 -7 87 7 45 17 71 28 78 36 21 64 59 64 86 0 37 -52 96 -95 108 -79 22 -178 -25 -187 -89 -5 -38 -93 -93 -133 -83 -16 4 -90 7 -164 6 -131 -1 -135 -1 -168 25 -27 22 -33 34 -33 64 0 68 -97 120 -182 98 -96 -26 -127 -103 -68 -168 28 -31 30 -39 30 -106 0 -40 -3 -75 -6 -79 -3 -3 -20 9 -38 26 -65 65 -227 127 -331 127 -34 0 -44 5 -54 24 -10 17 -10 29 -2 44 37 69 -31 144 -129 144 -50 0 -92 -18 -117 -51 -15 -19 -17 -75 -4 -99 7 -12 4 -24 -8 -40 -16 -23 -19 -23 -294 -25 -234 -2 -279 -4 -287 -17 -5 -8 -10 -60 -11 -115 0 -55 -4 -125 -7 -155 -7 -53 -8 -55 -39 -58 l-33 -3 0 159 c0 200 6 192 -147 192 l-110 0 -43 64 c-62 91 -81 100 -194 92 -111 -8 -175 -36 -246 -107 -43 -43 -54 -49 -92 -49 -33 0 -39 3 -30 12 8 8 12 45 12 100 0 82 -2 89 -29 121 -17 19 -67 51 -119 76 -109 52 -176 60 -239 31z m2297 -415 c137 -29 226 -90 251 -174 31 -105 -35 -196 -183 -249 -71 -25 -82 -26 -343 -30 l-270 -4 0 236 0 236 237 0 c172 0 256 -4 308 -15z m287 -242 c-2 -16 -4 -5 -4 22 0 28 2 40 4 28 2 -13 2 -35 0 -50z m38 -153 c16 -16 55 -43 85 -59 l55 -31 -76 0 c-42 0 -124 -3 -182 -7 -62 -3 -107 -2 -106 3 0 5 31 24 70 42 38 18 77 44 87 57 22 32 30 31 67 -5z m-945 -40 l0 -60 -65 0 c-36 0 -65 3 -65 8 0 4 18 17 39 29 22 12 50 36 63 52 12 17 24 30 26 30 1 1 2 -26 2 -59z m-704 -35 l47 -25 -55 0 c-54 0 -55 1 -50 25 2 14 6 25 8 25 1 0 24 -11 50 -25z m194 -75 c0 -5 -16 -16 -35 -25 -19 -9 -39 -23 -46 -31 -10 -13 -16 -11 -40 12 -25 24 -35 27 -108 27 -66 1 -85 -2 -108 -19 l-28 -21 -16 21 c-15 19 -26 21 -111 20 -146 -2 -178 -26 -178 -131 0 -68 17 -99 66 -119 44 -18 325 -18 351 1 14 10 21 10 38 -1 14 -9 48 -13 108 -12 59 2 91 -2 99 -10 10 -10 -43 -13 -275 -11 -300 1 -344 5 -386 37 -24 18 -26 26 -29 107 -3 100 0 108 73 141 49 23 57 24 338 24 175 0 287 -4 287 -10z m117 -34 c-4 -10 3 -13 26 -12 29 1 32 -2 32 -29 l0 -30 -67 4 c-45 2 -68 -1 -68 -8 0 -7 20 -11 49 -11 80 0 101 -12 101 -59 0 -42 -16 -62 -54 -65 -14 0 -22 -6 -19 -13 5 -14 2 -14 -67 -15 -24 0 -46 5 -48 11 -2 6 -19 11 -38 11 -34 0 -35 1 -32 33 l3 32 73 -3 c47 -3 72 0 72 7 0 7 -24 11 -64 11 -74 0 -89 11 -84 67 3 32 8 39 33 48 17 5 34 15 38 22 12 19 121 18 114 -1z m-509 -43 l3 -33 -64 0 -65 0 -3 -37 -4 -38 65 0 65 0 0 -30 0 -30 -107 0 c-132 0 -140 5 -140 94 0 98 18 109 167 107 l80 -1 3 -32z m238 29 c6 -4 23 -26 38 -49 20 -33 26 -55 26 -98 l0 -55 -61 0 c-60 0 -61 1 -57 25 5 22 2 25 -27 25 -29 0 -32 -2 -27 -26 4 -25 4 -25 -54 -22 l-59 3 -3 39 c-5 53 2 75 38 124 l30 42 73 0 c39 0 77 -4 83 -8z m483 -1 c10 -7 11 -16 4 -37 -10 -28 -9 -29 22 -29 30 0 32 2 24 24 -15 37 5 52 65 49 l51 -3 3 -103 3 -103 -63 3 c-56 3 -63 5 -62 23 1 11 4 27 8 35 5 12 -1 15 -29 15 -28 0 -34 -3 -29 -15 4 -8 7 -24 8 -35 1 -18 -6 -20 -61 -23 l-63 -3 0 99 c0 54 3 102 7 105 9 10 96 8 112 -2z m-734 -101 c-3 -5 -23 -7 -43 -4 -53 8 -53 14 2 14 28 0 45 -4 41 -10z"/> <path d="M2210 1375 l0 -115 65 0 c87 0 154 16 190 44 26 21 30 31 30 71 0 40 -4 50 -30 71 -36 28 -103 44 -190 44 l-65 0 0 -115z m213 68 c22 -13 33 -28 35 -47 9 -75 -27 -104 -139 -113 l-69 -6 0 98 0 98 71 -6 c41 -3 84 -14 102 -24z"/> <path d="M2260 1375 l0 -88 68 7 c87 9 117 29 117 81 0 52 -30 72 -117 81 l-68 7 0 -88z m148 33 c6 -6 12 -21 12 -33 0 -31 -16 -42 -77 -50 l-53 -7 0 57 0 57 53 -7 c28 -4 58 -12 65 -17z"/> <path d="M1117 927 c-14 -22 -14 -23 18 -23 32 0 32 1 18 23 -9 13 -17 23 -18 23 -1 0 -9 -10 -18 -23z"/> <path d="M205 1940 c-10 -11 -16 -23 -12 -26 9 -9 47 16 47 31 0 21 -14 19 -35 -5z"/> <path d="M330 1935 c0 -15 46 -32 57 -21 10 9 -18 36 -38 36 -11 0 -19 -7 -19 -15z"/> <path d="M288 1927 c-14 -34 -8 -76 15 -99 12 -13 17 -17 10 -8 -6 8 -13 40 -15 70 -2 36 -6 49 -10 37z"/> <path d="M80 1885 c-7 -9 -10 -19 -6 -22 8 -9 38 9 44 25 5 17 -23 15 -38 -3z"/> <path d="M132 1868 c-14 -14 -16 -38 -4 -38 10 0 42 33 42 43 0 11 -25 8 -38 -5z"/> <path d="M190 1845 c-19 -23 -8 -37 18 -20 12 9 22 20 22 26 0 14 -26 11 -40 -6z"/> <path d="M2870 1833 c0 -9 48 -33 66 -33 20 0 28 -40 12 -56 -23 -24 -96 -29 -119 -8 -10 9 -19 23 -19 31 0 8 -4 11 -10 8 -16 -10 -12 -24 15 -47 22 -19 25 -30 27 -97 l2 -76 5 74 c6 70 7 74 23 58 9 -9 19 -35 23 -57 4 -22 10 -40 15 -40 4 0 2 25 -5 55 -11 49 -11 55 5 60 23 7 56 45 65 73 5 19 1 25 -27 36 -53 22 -78 28 -78 19z"/> <path d="M2300 1811 c22 -18 23 -22 11 -47 -13 -29 -13 -29 8 -10 27 24 27 41 -1 60 -32 23 -48 19 -18 -3z"/> <path d="M66 1791 c-12 -13 -14 -21 -6 -26 13 -8 52 24 44 36 -8 14 -19 11 -38 -10z"/> <path d="M472 1794 c4 -24 35 -41 48 -28 8 8 7 16 -5 28 -21 21 -47 21 -43 0z"/> <path d="M180 1774 c-36 -14 -78 -30 -93 -36 -15 -6 -26 -12 -24 -14 2 -2 55 14 118 36 63 21 103 39 89 39 -14 0 -54 -11 -90 -25z"/> <path d="M2165 1789 c-10 -15 15 -69 31 -69 10 0 12 -9 8 -32 l-5 -33 15 33 c10 21 22 32 36 32 21 0 63 -35 72 -61 3 -8 8 -11 12 -8 4 4 -1 23 -11 42 -14 28 -23 35 -37 31 -12 -4 -16 -2 -12 5 5 7 -8 11 -38 11 -35 0 -48 5 -56 20 -6 11 -8 25 -5 30 3 6 4 10 1 10 -3 0 -8 -5 -11 -11z"/> <path d="M3569 1783 c-13 -16 -12 -17 4 -4 9 7 17 15 17 17 0 8 -8 3 -21 -13z"/> <path d="M2772 1770 c0 -14 2 -19 5 -12 2 6 2 18 0 25 -3 6 -5 1 -5 -13z"/> <path d="M3720 1770 c-8 -15 -8 -20 1 -18 27 6 18 -23 -13 -42 -18 -11 -29 -20 -24 -20 19 0 76 42 76 56 0 9 -5 12 -12 8 -8 -5 -9 -2 -5 9 9 25 -10 31 -23 7z"/> <path d="M951 1769 c-13 -5 -21 -12 -18 -15 9 -9 57 5 57 16 0 12 -7 12 -39 -1z"/> <path d="M3582 1768 c-17 -17 -15 -29 3 -22 8 4 13 10 10 14 -3 5 1 11 7 13 7 3 8 6 3 6 -6 1 -16 -4 -23 -11z"/> <path d="M838 1763 c-21 -5 -24 -23 -5 -23 7 0 22 7 33 15 20 15 9 18 -28 8z"/> <path d="M987 1722 c-20 -21 -37 -47 -36 -57 0 -15 2 -16 6 -5 4 8 22 34 41 58 43 52 38 54 -11 4z"/> <path d="M1032 1728 c7 -19 38 -22 38 -4 0 10 -9 16 -21 16 -12 0 -19 -5 -17 -12z"/> <path d="M262 1722 c-38 -6 -19 -27 27 -30 31 -2 42 0 39 9 -5 16 -37 26 -66 21z"/> <path d="M2957 1724 c-11 -11 -8 -24 5 -24 7 0 29 -16 49 -36 24 -23 44 -35 58 -32 18 2 12 10 -36 48 -68 53 -67 52 -76 44z"/> <path d="M888 1713 c-19 -5 -25 -23 -9 -23 17 0 41 12 41 21 0 9 -4 10 -32 2z"/> <path d="M3569 1707 c8 -10 2 -20 -29 -43 -37 -27 -49 -44 -32 -44 4 0 26 17 49 39 33 30 49 37 70 34 27 -4 27 -4 9 11 -25 20 -84 22 -67 3z"/> <path d="M763 1703 c-7 -2 -13 -9 -13 -14 0 -14 24 -11 46 6 19 14 19 14 -1 14 -11 0 -26 -3 -32 -6z"/> <path d="M3519 1693 c-13 -15 -12 -15 9 -4 23 12 28 21 13 21 -5 0 -15 -7 -22 -17z"/> <path d="M2150 1685 c-7 -9 -11 -17 -9 -20 3 -2 10 5 17 15 14 24 10 26 -8 5z"/> <path d="M1036 1671 c-7 -11 18 -33 27 -24 4 3 7 12 7 20 0 15 -26 18 -34 4z"/> <path d="M3646 1666 c3 -8 -2 -38 -10 -67 -14 -47 -14 -55 -1 -68 22 -22 21 -25 40 107 5 37 4 42 -14 42 -13 0 -19 -5 -15 -14z"/> <path d="M840 1654 c37 -8 88 -9 84 -2 -3 4 -26 7 -52 7 -26 -1 -40 -3 -32 -5z"/> <path d="M764 1639 c-8 -13 13 -29 39 -29 23 0 22 17 -2 30 -25 13 -28 13 -37 -1z"/> <path d="M580 1633 c-70 -2 -135 -8 -147 -15 -23 -11 -23 -13 -23 -254 l0 -242 23 -6 c48 -13 96 -7 107 14 8 15 17 18 43 13 17 -3 39 -12 48 -20 14 -11 56 -14 222 -11 113 2 208 6 211 9 3 3 7 38 8 77 1 40 5 72 10 72 4 0 8 -6 8 -14 0 -8 15 -27 34 -43 82 -73 212 -107 381 -101 132 6 213 27 278 74 77 56 89 95 88 272 -2 124 -4 147 -19 158 -23 18 -253 19 -270 2 -8 -8 -12 -53 -12 -137 0 -108 -3 -131 -20 -159 -23 -38 -58 -54 -100 -45 -53 10 -60 31 -60 194 0 109 -3 146 -12 148 -7 1 -78 6 -158 11 -127 8 -146 7 -162 -7 -22 -20 -23 -43 -2 -43 8 0 13 4 9 9 -3 5 -1 12 5 16 5 3 10 -1 10 -9 0 -8 -4 -17 -8 -20 -4 -2 -6 -69 -5 -148 l4 -143 -166 0 c-91 0 -165 3 -165 8 0 4 71 7 158 7 l157 0 -3 113 -3 112 -45 -4 c-25 -2 -74 0 -109 4 -52 5 -73 13 -110 41 -26 21 -45 43 -45 54 0 13 -6 19 -17 18 -10 -1 -74 -4 -143 -5z m120 -198 l0 -175 170 0 170 0 0 -59 0 -59 -177 -4 c-160 -4 -186 -2 -255 17 -75 21 -135 51 -124 62 3 3 11 1 19 -5 18 -15 183 -62 218 -62 62 0 16 52 -68 76 -67 20 -140 22 -173 4 l-22 -12 38 -39 38 -39 -47 0 -47 0 0 235 0 235 130 0 130 0 0 -175z m660 31 c0 -79 3 -152 6 -161 10 -26 59 -45 114 -45 44 0 56 5 81 29 l29 29 0 146 0 146 125 0 125 0 0 -147 c0 -122 -4 -155 -19 -188 -23 -52 -66 -87 -138 -116 -51 -21 -75 -24 -208 -24 -167 0 -220 12 -295 66 -68 49 -80 88 -80 262 l0 147 130 0 130 0 0 -144z m-615 -16 c0 -106 -3 -144 -12 -147 -10 -4 -13 30 -13 147 0 117 3 151 13 148 9 -4 12 -42 12 -148z m179 43 l96 -6 0 -78 0 -79 -120 0 -120 0 0 100 0 100 24 -16 c16 -10 58 -18 120 -21z m-256 -294 c17 -6 32 -15 32 -21 0 -10 -43 -4 -90 12 -14 5 -38 11 -53 14 -15 4 -25 10 -23 15 6 9 79 -2 134 -20z"/> <path d="M914 1579 c-8 -13 13 -29 39 -29 23 0 22 17 -2 30 -25 13 -28 13 -37 -1z"/> <path d="M3154 1476 c-97 -43 -96 -161 2 -202 51 -21 140 -18 192 7 90 44 91 139 3 186 -51 27 -146 31 -197 9z m179 -31 c22 -14 26 -22 21 -44 -4 -14 -13 -34 -21 -43 -11 -12 -12 -22 -5 -34 9 -15 12 -14 26 15 10 18 14 41 11 51 -4 11 -2 20 4 20 35 0 12 -84 -31 -114 -26 -18 -113 -21 -153 -6 -22 8 -24 13 -15 30 17 31 41 26 35 -7 l-5 -28 12 28 c7 15 20 27 29 27 10 0 21 5 24 10 10 16 -72 12 -88 -4 -11 -12 -15 -11 -25 4 -11 19 -6 55 12 80 9 13 9 13 -5 2 -10 -7 -20 -29 -24 -49 -5 -29 -3 -40 11 -50 10 -7 14 -16 10 -20 -3 -4 -16 2 -27 14 -16 16 -19 28 -15 49 8 34 29 64 48 68 7 2 20 6 28 9 33 12 46 14 80 12 20 -1 48 -10 63 -20z"/> <path d="M3279 1428 c29 -26 32 -33 23 -49 -15 -24 -1 -25 19 -1 18 21 31 53 21 50 -4 -1 -21 6 -39 15 -50 27 -61 20 -24 -15z"/> <path d="M3167 1405 c-8 -18 1 -45 14 -45 10 0 7 45 -3 55 -3 3 -8 -1 -11 -10z"/> <path d="M3280 1340 c-12 -8 -12 -10 3 -16 9 -3 17 -12 17 -20 0 -8 4 -14 9 -14 18 0 19 16 3 38 -12 15 -21 19 -32 12z"/> <path d="M3173 1149 c-29 -11 -66 -34 -82 -50 -16 -16 -39 -29 -50 -29 -12 0 -21 -3 -21 -8 0 -4 35 -7 78 -7 63 0 84 -4 115 -24 47 -29 59 -51 64 -117 5 -76 -15 -120 -69 -144 -24 -11 -58 -20 -75 -20 -18 0 -33 -4 -33 -10 0 -5 8 -10 18 -10 9 0 24 -13 34 -29 23 -41 71 -63 150 -69 84 -6 148 16 183 62 31 40 31 42 1 50 -37 9 -90 57 -75 67 8 4 24 -2 41 -16 39 -33 100 -50 179 -49 112 1 199 60 199 136 0 38 -56 92 -111 106 -97 24 -92 25 -116 -28 -36 -83 -122 -129 -267 -144 -51 -6 -58 -4 -52 10 3 8 6 31 6 50 0 29 3 34 24 34 37 0 73 17 85 38 11 21 4 62 -11 62 -5 0 -4 -8 2 -19 14 -27 -16 -60 -62 -68 -33 -5 -38 -3 -38 15 0 11 7 23 16 26 8 3 12 11 9 16 -5 8 -11 7 -21 -1 -11 -9 -14 -8 -14 3 0 36 -91 88 -155 88 -19 0 -35 4 -35 9 0 19 125 71 185 77 108 11 231 -33 269 -97 27 -46 20 -84 -21 -127 -37 -38 -84 -60 -173 -81 l-45 -10 55 5 c70 6 153 46 185 88 58 76 12 173 -101 216 -74 27 -198 27 -271 -1z m581 -192 c22 -12 47 -34 56 -50 14 -25 13 -30 -5 -65 -31 -57 -80 -77 -190 -77 -65 1 -99 6 -122 18 -44 24 -49 35 -17 47 21 8 31 7 44 -5 9 -8 23 -15 31 -15 8 1 2 8 -13 16 -16 8 -28 17 -28 19 0 2 14 11 30 20 17 9 42 33 56 54 15 23 32 38 42 36 9 -1 11 0 5 2 -7 3 -13 11 -13 20 0 21 70 10 124 -20z m-346 -185 c2 -7 -7 -12 -22 -12 -14 0 -26 5 -26 11 0 5 -4 7 -10 4 -16 -10 -12 -22 10 -28 30 -8 26 -45 -7 -58 -15 -6 -35 -8 -43 -6 -9 2 -24 -1 -34 -8 -14 -11 -9 -12 31 -8 56 6 86 28 80 59 -5 31 36 38 76 14 l30 -19 -30 -29 c-31 -31 -86 -52 -139 -52 -72 0 -174 50 -174 85 0 7 12 15 28 18 15 3 44 17 64 31 58 39 152 38 166 -2z"/> <path d="M3698 933 c32 -23 29 -47 -5 -38 -15 3 -31 11 -34 17 -4 6 -9 4 -12 -5 -3 -9 4 -20 19 -27 46 -25 17 -70 -46 -70 -46 0 -72 -9 -64 -21 3 -5 11 -6 17 -2 7 4 29 8 49 8 46 1 81 30 75 62 -3 17 0 23 14 23 12 0 19 7 19 18 0 20 -30 52 -46 51 -5 0 1 -7 14 -16z"/> <path d="M3617 923 c-4 -3 -7 -11 -7 -17 0 -6 5 -5 12 2 6 6 9 14 7 17 -3 3 -9 2 -12 -2z"/> <path d="M3570 859 c0 -18 2 -19 15 -9 15 12 12 30 -6 30 -5 0 -9 -10 -9 -21z"/> <path d="M3607 853 c-12 -12 -7 -22 8 -17 8 4 15 10 15 15 0 11 -14 12 -23 2z"/> <path d="M3315 780 c-3 -5 -1 -10 4 -10 6 0 11 5 11 10 0 6 -2 10 -4 10 -3 0 -8 -4 -11 -10z"/> <path d="M3249 749 c-11 -7 -9 -9 9 -9 13 0 20 -4 17 -10 -3 -5 -2 -10 4 -10 5 0 12 4 16 9 9 15 -28 31 -46 20z"/> <path d="M3216 715 c7 -17 44 -41 44 -28 0 4 -12 16 -25 26 -20 15 -24 15 -19 2z"/> <path d="M3307 723 c-12 -12 -7 -22 8 -17 8 4 15 10 15 15 0 11 -14 12 -23 2z"/> <path d="M3251 1107 c-14 -6 -27 -19 -29 -27 -4 -11 -1 -11 12 2 18 19 79 34 94 24 6 -3 21 -2 34 3 19 8 13 10 -32 10 -30 0 -66 -5 -79 -12z"/> <path d="M546 1099 c6 -11 84 -12 84 -1 0 4 -20 8 -45 8 -24 1 -42 -2 -39 -7z"/> <path d="M477 1075 c-21 -12 -43 -28 -50 -35 -7 -7 11 0 38 15 59 34 60 34 54 38 -2 2 -21 -6 -42 -18z"/> <path d="M3395 1088 c22 -12 45 -37 45 -50 0 -4 -18 -7 -40 -5 -26 1 -40 7 -40 16 0 11 -3 11 -15 1 -14 -11 -13 -14 2 -25 21 -15 94 -6 100 12 5 15 -41 63 -59 63 -7 0 -4 -6 7 -12z"/> <path d="M640 1080 c0 -5 12 -10 26 -10 14 0 23 4 19 10 -3 6 -15 10 -26 10 -10 0 -19 -4 -19 -10z"/> <path d="M3300 1060 c0 -5 4 -10 9 -10 6 0 13 5 16 10 3 6 -1 10 -9 10 -9 0 -16 -4 -16 -10z"/> <path d="M2635 1030 c-64 -7 -89 -22 -105 -60 -12 -29 -15 -30 -66 -29 -51 2 -54 3 -54 29 0 54 -17 58 -219 59 -230 1 -221 6 -221 -126 0 -113 13 -133 86 -133 37 0 51 5 75 29 16 17 39 33 52 37 12 3 28 11 35 16 9 8 12 4 12 -14 0 -13 10 -34 23 -46 21 -20 34 -22 138 -22 84 0 120 4 135 14 18 13 26 13 65 -1 65 -22 190 -14 230 16 l31 23 22 -21 c17 -16 35 -21 77 -21 30 0 60 5 66 11 8 8 13 8 17 0 8 -12 94 -15 121 -5 30 12 55 79 55 147 0 81 -15 97 -89 97 -49 0 -53 -2 -72 -35 -12 -19 -22 -35 -24 -35 -2 0 -12 16 -24 35 -19 33 -23 35 -74 35 -30 0 -62 -6 -72 -14 -16 -12 -24 -12 -45 -1 -31 16 -108 22 -175 15z m-397 -58 l3 -34 -65 4 c-50 2 -66 0 -66 -10 0 -9 12 -13 38 -12 61 3 64 2 60 -27 -3 -26 -6 -28 -48 -28 l-45 0 3 -33 4 -33 -63 3 -64 3 -3 88 c-2 58 1 94 9 103 9 11 36 14 123 12 l111 -3 3 -33z m137 -40 l0 -72 30 0 c20 0 26 3 17 9 -8 5 -12 17 -10 27 3 16 12 19 58 19 l55 0 3 -57 3 -58 -136 0 -135 0 0 98 c0 54 3 102 7 106 4 4 30 6 58 4 l50 -3 0 -73z m439 55 c23 -16 26 -24 26 -80 0 -71 -5 -82 -43 -96 -39 -15 -186 -14 -217 2 -21 11 -26 21 -31 72 -7 77 2 102 43 114 51 16 191 8 222 -12z m159 -37 c-2 -53 -1 -54 14 -32 20 28 59 29 73 1 18 -33 24 -13 10 32 -17 50 -9 57 64 55 l51 -1 3 -68 c2 -55 -1 -75 -18 -103 -20 -32 -25 -34 -76 -34 -36 0 -54 4 -55 13 -1 6 -2 18 -3 26 -2 27 -25 22 -28 -6 -3 -26 -6 -28 -54 -31 -48 -3 -54 0 -73 27 -16 23 -21 44 -21 98 0 38 3 73 7 77 4 4 30 6 58 4 l50 -3 -2 -55z"/> <path d="M2665 904 c0 -43 0 -44 35 -44 26 0 31 3 22 12 -15 15 -16 58 0 58 23 0 -4 15 -30 16 -26 1 -27 -1 -27 -42z"/> <path d="M530 985 c0 -8 -9 -15 -19 -15 -20 0 -51 -25 -51 -40 0 -5 13 -16 28 -24 30 -15 41 -56 16 -56 -8 0 -17 7 -20 15 -6 15 -34 21 -34 7 0 -14 24 -32 42 -32 10 0 21 -7 24 -15 4 -8 11 -15 17 -15 6 0 7 3 3 7 -4 4 8 12 26 19 48 16 50 50 5 69 -28 11 -34 19 -30 35 6 24 21 26 29 5 8 -19 34 -20 34 0 0 8 -11 17 -25 21 -14 3 -25 12 -25 20 0 8 -4 14 -10 14 -5 0 -10 -7 -10 -15z m-7 -44 c-3 -12 -11 -17 -19 -14 -23 9 -14 33 12 33 7 0 10 -8 7 -19z m38 -67 c10 -13 10 -17 -2 -25 -23 -14 -29 -11 -29 16 0 29 12 32 31 9z"/> <path d="M367 972 c-32 -35 -38 -70 -22 -132 8 -32 15 -67 15 -79 0 -14 9 -25 25 -31 39 -15 163 -27 177 -18 9 5 7 8 -7 9 -30 2 -75 7 -122 14 -44 6 -49 13 -65 80 -22 92 -21 110 7 143 28 33 21 46 -8 14z"/> <path d="M580 709 c0 -7 28 -8 88 -4 48 4 89 9 91 11 2 2 -37 4 -87 4 -58 0 -92 -4 -92 -11z"/> </g> </svg> 